<svg width="144" height="205" viewBox="0 0 144 205" fill="none" xmlns="http://www.w3.org/2000/svg">
<g opacity="0.4" clip-path="url(#clip0_32_1435)">
<path d="M138.771 85.4011L0.322248 0.728448L-3.83343 163.114L138.771 85.4011ZM135.107 85.3119L-1.92241 159.996L2.06932 3.9758L135.095 85.3059L135.107 85.3119ZM126.577 85.11L6.16285 11.4545L2.53095 152.714L126.577 85.11ZM122.919 85.0093L4.44243 149.567L7.89888 14.6668L122.907 85.0033L122.919 85.0093ZM114.389 84.8073L11.9745 22.1801L8.89579 142.285L114.378 84.8014L114.389 84.8073ZM110.731 84.7067L10.8128 139.156L13.728 25.3869L110.731 84.7067ZM102.201 84.5047L17.8035 32.9002L15.2662 131.874L102.201 84.5047ZM98.5429 84.404L17.1772 128.756L19.5456 36.101L98.5429 84.404ZM90.0135 84.2021L23.6211 43.6143L21.6305 121.474L90.0135 84.2021ZM86.355 84.1014L23.536 118.339L25.3746 46.8211L86.355 84.1014ZM77.8256 83.8995L29.4562 54.3228L27.9954 111.045L77.8256 83.8995ZM74.167 83.7988L29.9124 107.916L31.1982 57.5236L74.167 83.7988ZM65.6376 83.5968L35.2798 65.0254L34.3713 100.651L65.6491 83.6028L65.6376 83.5968ZM61.9731 83.5077L36.2768 97.5157L37.0273 68.2437L61.9791 83.4961L61.9731 83.5077Z" fill="url(#paint0_linear_32_1435)"/>
</g>
<defs>
<linearGradient id="paint0_linear_32_1435" x1="70.0794" y1="2.68979" x2="66.0681" y2="165.082" gradientUnits="userSpaceOnUse">
<stop stop-color="#B8E1D6"/>
<stop offset="0.0001" stop-color="#7E78C7" stop-opacity="0"/>
<stop offset="1" stop-color="#F4FFFF"/>
</linearGradient>
<clipPath id="clip0_32_1435">
<rect width="146.031" height="161.892" fill="white" transform="translate(-66.9727 130.329) rotate(-62.5595)"/>
</clipPath>
</defs>
</svg>
